<?xml version="1.0" encoding="utf-8"?>
<!-- Generator: Adobe Illustrator 23.0.3, SVG Export Plug-In . SVG Version: 6.00 Build 0)  -->
<svg version="1.1" id="Layer_1" xmlns="http://www.w3.org/2000/svg" xmlns:xlink="http://www.w3.org/1999/xlink" x="0px" y="0px"
	 viewBox="-307.77 344.25 100 100" style="enable-background:new -307.77 344.25 100 100;" xml:space="preserve">
<style type="text/css">
	.st0{fill:none;stroke:#000000;stroke-width:3.5;stroke-linecap:round;stroke-linejoin:round;stroke-miterlimit:10;}
</style>
<path class="st0" d="M-238.07,395.52c-2.17,0-2.9-1.21-3.21-1.7c-0.64-1.03-1.83-1.92-3.04-2.37c-0.58-0.14-1.2,0.21-1.2,1.3v13.74
	h0v0h-14.31c-1.1,0-1.45,0.62-1.3,1.21c0.45,1.21,1.34,2.4,2.37,3.03c0.49,0.31,1.7,1.04,1.7,3.21c0,2.93-3.3,5.31-7.36,5.31
	c-4.07,0-7.36-2.38-7.36-5.31c0-2.17,1.21-2.9,1.7-3.21c1.03-0.64,1.92-1.83,2.37-3.04c0.14-0.58-0.21-1.2-1.3-1.2h-13.74v-13.74
	c0-1.1,0.62-1.45,1.2-1.31c1.21,0.45,2.4,1.34,3.04,2.37c0.31,0.49,1.04,1.7,3.21,1.7c2.93,0,5.31-3.3,5.31-7.36
	c0-4.07-2.38-7.36-5.31-7.36c-2.17,0-2.9,1.21-3.21,1.7c-0.64,1.03-1.82,1.92-3.03,2.37c-0.59,0.14-1.21-0.21-1.21-1.31v-14.3h37.24
	v0l0,0v14.31c0,1.09,0.62,1.44,1.21,1.3c1.21-0.45,2.4-1.34,3.03-2.37c0.31-0.49,1.04-1.7,3.21-1.7c2.93,0,5.31,3.3,5.31,7.36
	C-232.77,392.22-235.14,395.52-238.07,395.52z"/>
</svg>
