<?xml version="1.0" encoding="utf-8"?>
<!-- Generator: Adobe Illustrator 23.0.3, SVG Export Plug-In . SVG Version: 6.00 Build 0)  -->
<svg version="1.1" id="Layer_1" xmlns="http://www.w3.org/2000/svg" xmlns:xlink="http://www.w3.org/1999/xlink" x="0px" y="0px"
	 viewBox="0 0 100 100" style="enable-background:new 0 0 100 100;" xml:space="preserve">
<style type="text/css">
	.st0{fill:none;stroke:#ffffff;stroke-width:3.5;stroke-linecap:round;stroke-linejoin:round;stroke-miterlimit:10;}
	.st1{fill: #ffffff;stroke:none;stroke-width:3.5;stroke-linecap:round;stroke-linejoin:round;stroke-miterlimit:10;}
</style>
<g>
	<path class="st1" d="M71.83,37.19c1.18,0,2.17,0.99,2.17,2.17v29.79c0,1.18-0.99,2.17-2.17,2.17H28.17c-1.18,0-2.17-0.99-2.17-2.17V39.36
		c0-1.18,0.99-2.17,2.17-2.17H71.83 M71.83,33.69H28.17c-3.12,0-5.67,2.55-5.67,5.67v29.79c0,3.12,2.55,5.67,5.67,5.67h43.66
		c3.12,0,5.67-2.55,5.67-5.67V39.36C77.5,36.24,74.95,33.69,71.83,33.69L71.83,33.69z"/>
</g>
<path class="st1" d="M40.41,35.99v-5.33c0-1.13,0.96-2.09,2.09-2.09h14.99c1.13,0,2.09,0.96,2.09,2.09v5.33h3.38v-5.33
	c0-3.01-2.46-5.47-5.47-5.47H42.51c-3.01,0-5.47,2.46-5.47,5.47v5.33H40.41z"/>
<line class="st0" x1="31.11" y1="66.35" x2="69.08" y2="66.35"/>
</svg>
