<?xml version="1.0" encoding="utf-8"?>
<!-- Generator: Adobe Illustrator 23.0.3, SVG Export Plug-In . SVG Version: 6.00 Build 0)  -->
<svg version="1.1" id="Layer_1" xmlns="http://www.w3.org/2000/svg" xmlns:xlink="http://www.w3.org/1999/xlink" x="0px" y="0px"
	 viewBox="0 0 100 100" style="enable-background:new 0 0 100 100;" xml:space="preserve">
<style type="text/css">
	.st0{stroke:#000000;stroke-width:0.684;stroke-miterlimit:10;}
	.st1{fill:none;stroke:#000000;stroke-width:2.8;stroke-linecap:round;stroke-linejoin:round;stroke-miterlimit:10;}
</style>
<path class="st0" d="M59.33,59.29c-1.97,0-3.88-0.39-5.68-1.15l1.04-2.46c1.47,0.62,3.04,0.94,4.65,0.94c6.62,0,12-5.38,12-12
	c0-5.72-4.07-10.67-9.7-11.77l-0.96-0.19l-0.11-0.97c-0.47-4.03-3.87-7.08-7.9-7.08c-4.05,0-7.45,3.06-7.9,7.11l-0.17,1.46
	l-1.43-0.3c-7.82-1.64-14.5,4.3-14.5,11.73c0,6.62,5.38,12,12,12c1.67,0,3.28-0.34,4.8-1.01l1.07,2.44
	c-1.86,0.82-3.83,1.23-5.87,1.23C32.58,59.29,26,52.71,26,44.62c0-8.64,7.45-15.64,16.36-14.56c1.16-4.71,5.37-8.1,10.31-8.1
	c5.07,0,9.38,3.59,10.39,8.49C69.45,32.12,74,37.94,74,44.62C74,52.71,67.42,59.29,59.33,59.29z"/>
<g>
	<path class="st1" d="M39.48,78.05h4.53c1.38,0,2.5-1.13,2.5-2.5V56.23"/>
</g>
<g>
	<path class="st1" d="M60.7,78.05h-4.53c-1.38,0-2.5-1.13-2.5-2.5V56.23"/>
</g>
</svg>
