<?xml version="1.0" encoding="utf-8"?>
<!-- Generator: Adobe Illustrator 23.0.3, SVG Export Plug-In . SVG Version: 6.00 Build 0)  -->
<svg version="1.1" id="Layer_1" xmlns="http://www.w3.org/2000/svg" xmlns:xlink="http://www.w3.org/1999/xlink" x="0px" y="0px"
	 viewBox="0 0 100 100" style="enable-background:new 0 0 100 100;" xml:space="preserve">
<style type="text/css">
	.st0{fill: #ffffff;stroke: #ffffff;stroke-width:1.3;stroke-miterlimit:10;}
	.st1{fill:none;stroke: #ffffff;stroke-width:3;stroke-miterlimit:10;}
</style>
<g>
	<path class="st0" d="M22.53,57.92c0.66-10.19,8.98-15.65,16.64-15.17c1.91,0.11,4.03,0.66,5.53,1.32c0.4,0.18,0.84,0,1.06-0.37
		l3.81-6.56c0.18-0.29,0.48-0.48,0.73-0.37l5.75,0.33c0.48,0.04,0.88-0.33,0.92-0.81l0.26-4.1v-0.18c0.18-1.1,0.55-1.39,1.76-1.39
		l5.75,0.33c0.48,0.04,0.88-0.33,0.92-0.81l0.26-4.07v-0.04V25.6c0-0.18-0.11-0.55,0.29-0.92c0.29-0.29,0.73-0.29,1.03-0.29h0.44
		h0.04l7.48,0.48c1.39,0.11,2.38,1.21,2.31,2.57l-0.37,6.41c0,0.55-0.29,1.1-0.73,1.58l-20.12,20.3c-0.18,0.18-0.29,0.44-0.26,0.73
		c0.15,1.06,0.29,2.46,0.22,3.41c-0.55,9.27-8.54,16.27-17.85,15.72C28.94,75.03,21.98,67.15,22.53,57.92z M54.56,59.82
		c0.11-0.84-0.11-2.31-0.29-3.96c0-0.29,0.11-0.55,0.29-0.73l20.7-20.89c0.11-0.11,0.18-0.29,0.18-0.48l0.37-6.41
		c0-0.48-0.29-0.84-0.73-0.84l-6.63-0.44c-0.48-0.04-0.88,0.33-0.92,0.81l-0.33,4.95c0,0.48-0.48,0.84-0.92,0.73l-6.56-0.4
		c-0.48-0.04-0.88,0.33-0.92,0.81l-0.33,4.95c0,0.48-0.48,0.84-0.92,0.73l-6.45-0.33c-0.33,0-0.62,0.15-0.77,0.4l-4.14,7.04
		c-0.11,0.18-0.37,0.37-0.55,0.37c-0.29,0-0.48,0-0.66-0.18c-1.03-0.84-3.41-1.76-6.05-1.83c-6.89-0.37-14.36,4.58-14.91,13.74
		c-0.48,8.35,5.97,15.54,14.25,16.01C46.9,74.55,54.12,68.14,54.56,59.82z"/>
</g>
<circle class="st1" cx="36.18" cy="61.73" r="4"/>
</svg>
