<?xml version="1.0" encoding="utf-8"?>
<!-- Generator: Adobe Illustrator 23.0.3, SVG Export Plug-In . SVG Version: 6.00 Build 0)  -->
<svg version="1.1" id="Layer_1" xmlns="http://www.w3.org/2000/svg" xmlns:xlink="http://www.w3.org/1999/xlink" x="0px" y="0px"
	 viewBox="0 0 100.6 100.09" style="enable-background:new 0 0 100.6 100.09;" xml:space="preserve">
<style type="text/css">
	.st0{fill:none;stroke:#000000;stroke-width:3;stroke-linecap:round;stroke-linejoin:round;stroke-miterlimit:10;}
</style>
<line class="st0" x1="31.4" y1="24.7" x2="69.4" y2="24.7"/>
<line class="st0" x1="31.4" y1="75.7" x2="69.4" y2="75.7"/>
<line class="st0" x1="41.4" y1="70.7" x2="59.4" y2="70.7"/>
<g>
	<path class="st0" d="M35.9,75.2v-8.13c0-2.75,1.83-6.32,4.06-7.92l2.89-2.08c2.23-1.61,4.06-4.51,4.06-6.45s-1.7-5-3.78-6.8
		l-3.44-2.99c-2.08-1.8-3.78-5.53-3.78-8.28V25.2"/>
</g>
<g>
	<path class="st0" d="M64.9,75.2v-8.13c0-2.75-1.83-6.32-4.06-7.92l-2.89-2.08c-2.23-1.61-4.06-4.51-4.06-6.45s1.7-5,3.78-6.8
		l3.44-2.99c2.08-1.8,3.78-5.53,3.78-8.28V25.2"/>
</g>
</svg>
