<?xml version="1.0" encoding="utf-8"?>
<!-- Generator: Adobe Illustrator 23.0.3, SVG Export Plug-In . SVG Version: 6.00 Build 0)  -->
<svg version="1.1" id="Layer_1" xmlns="http://www.w3.org/2000/svg" xmlns:xlink="http://www.w3.org/1999/xlink" x="0px" y="0px"
	 viewBox="0 0 100 100" style="enable-background:new 0 0 100 100;" xml:space="preserve">
<style type="text/css">
	.st0{stroke:#000000;stroke-width:1.3;stroke-miterlimit:10;}
	.st1{fill:none;stroke:#000000;stroke-width:3;stroke-miterlimit:10;}
</style>
<g>
	<path class="st0" d="M57.73,25.03c-9.94,0.6-15.27,8.16-14.81,15.12c0.11,1.73,0.64,3.66,1.29,5.03c0.18,0.37,0,0.77-0.36,0.97
		l-6.4,3.46c-0.29,0.17-0.47,0.43-0.36,0.67l0.32,5.23c0.04,0.43-0.32,0.8-0.79,0.83l-4.01,0.23h-0.18c-1.07,0.17-1.36,0.5-1.36,1.6
		l0.32,5.23c0.04,0.43-0.32,0.8-0.79,0.83l-3.97,0.23h-0.04h-0.43c-0.18,0-0.54-0.1-0.89,0.27C25,65,25,65.4,25,65.67v0.4v0.03
		l0.47,6.8c0.11,1.27,1.18,2.17,2.5,2.1l6.26-0.33c0.54,0,1.07-0.27,1.54-0.67l19.82-18.29c0.18-0.17,0.43-0.27,0.72-0.23
		c1.04,0.13,2.4,0.27,3.33,0.2c9.05-0.5,15.88-7.76,15.35-16.22C74.43,30.86,66.74,24.53,57.73,25.03z M59.59,54.14
		c-0.82,0.1-2.25-0.1-3.86-0.27c-0.29,0-0.54,0.1-0.72,0.27L34.62,72.96c-0.11,0.1-0.29,0.17-0.47,0.17l-6.26,0.33
		c-0.47,0-0.82-0.27-0.82-0.67l-0.43-6.03c-0.04-0.43,0.32-0.8,0.79-0.83l4.83-0.3c0.47,0,0.82-0.43,0.72-0.83l-0.39-5.96
		c-0.04-0.43,0.32-0.8,0.79-0.83l4.83-0.3c0.47,0,0.82-0.43,0.72-0.83l-0.32-5.86c0-0.3,0.14-0.57,0.39-0.7l6.87-3.76
		c0.18-0.1,0.36-0.33,0.36-0.5c0-0.27,0-0.43-0.18-0.6c-0.82-0.93-1.72-3.1-1.79-5.5c-0.36-6.26,4.47-13.06,13.41-13.56
		c8.16-0.43,15.17,5.43,15.63,12.96C73.97,47.18,67.71,53.74,59.59,54.14z"/>
</g>
<ellipse class="st1" cx="61.45" cy="37.43" rx="3.9" ry="3.64"/>
</svg>
