<?xml version="1.0" encoding="utf-8"?>
<!-- Generator: Adobe Illustrator 23.0.3, SVG Export Plug-In . SVG Version: 6.00 Build 0)  -->
<svg version="1.1" id="Layer_1" xmlns="http://www.w3.org/2000/svg" xmlns:xlink="http://www.w3.org/1999/xlink" x="0px" y="0px"
	 viewBox="0 0 100 100" style="enable-background:new 0 0 100 100;" xml:space="preserve">
<style type="text/css">
	.st0{fill:none;stroke:#000000;stroke-width:3;stroke-linecap:round;stroke-linejoin:round;stroke-miterlimit:10;}
	.st1{fill:none;stroke:#000000;stroke-width:3.0019;stroke-linecap:round;stroke-linejoin:round;stroke-miterlimit:10;}
</style>
<line class="st0" x1="50.05" y1="73.31" x2="50.05" y2="32.31"/>
<line class="st0" x1="28.55" y1="31.81" x2="71.55" y2="31.81"/>
<line class="st0" x1="28.55" y1="78.81" x2="71.55" y2="78.81"/>
<line class="st0" x1="39.55" y1="73.81" x2="60.55" y2="73.81"/>
<circle cx="50.05" cy="24.69" r="3.5"/>
<polyline class="st0" points="33.92,32.4 24.08,53.81 43.92,53.81 34.08,32.44 "/>
<polyline class="st0" points="65.92,32.38 56.08,53.81 75.92,53.81 66.08,32.42 "/>
<path class="st1" d="M24.08,53.72c0,5.48,4.44,9.92,9.92,9.92s9.92-4.44,9.92-9.92"/>
<path class="st1" d="M56.08,53.72c0,5.48,4.44,9.92,9.92,9.92s9.93-4.44,9.93-9.92"/>
<path class="st0" d="M34,43.81"/>
</svg>
